# xmcd
#
# Track frame offsets:
#	150
#	30471
#	132455
#	163577
#
# Disc length: 3754 seconds
#
# Revision: 1744552443
# Processed by: cddbd v1.5.2PL0 Copyright (c) Steve Scherf et al.
# Submitted via: EZCDAudioConverter 8.0.2.1
#
DISCID=2c0ea804
DTITLE=Hài Vân Sơn - Hoài Linh Đặc Biệt
DYEAR=1999
DGENRE=
TTITLE0=Lý nói láo
TTITLE1=Hoa hậu ba miền
TTITLE2=Năm ngón tay
TTITLE3=Hoa hậu Asia
EXTD=
EXTT0=
EXTT1=
EXTT2=
EXTT3=
PLAYORDER=
